<svg width="44" height="44" viewBox="0 0 44 44" fill="none" xmlns="http://www.w3.org/2000/svg">
<path fill-rule="evenodd" clip-rule="evenodd" d="M20.7152 0.797424H13.9382V15.481H20.7152V8.13922H27.4923L30.8808 0.797424H24.1037L20.7152 8.13922V0.797424ZM40.8599 13.8263L38.7647 7.38245L24.7983 11.9174L26.8936 18.3613L33.8739 16.0909L35.9692 22.5348L44 23.4892L41.9047 17.0454L33.8739 16.0909L40.8543 13.8206L40.8599 13.8263ZM40.1823 33.0336L34.6985 37.0151V37.0207L30.3838 31.0795L26.0691 25.1383L31.5528 21.1568L40.1823 33.0336ZM30.3838 31.0795L31.9594 39.0087L26.4757 42.9902L24.9 35.061L30.3838 31.0795ZM10.736 38.3196L10.7387 38.3216L10.736 38.3253V38.3196ZM15.0508 32.3841L9.567 28.4026L2.50758 32.3502L7.99134 36.3317L15.0508 32.3841ZM15.0508 32.3841L10.7387 38.3216L16.2198 42.3012L24.8492 30.4244L19.3655 26.4429L15.0508 32.3841ZM0 22.3767L2.09524 15.9328L2.10088 15.9272L9.08124 18.1975L16.0616 20.4678L13.9664 26.9116L0 22.3767ZM11.1765 11.7536L9.08124 18.1975L3.14568 12.7081L5.24091 6.26424L11.1765 11.7536Z" fill="white"/>
</svg>
